<svg width="360" height="4" viewBox="0 0 360 4" fill="none" xmlns="http://www.w3.org/2000/svg">
<path fill-rule="evenodd" clip-rule="evenodd" d="M0.000976562 1.9933C0.805361 1.35313 1.94951 0.953125 3.219 0.953125C4.48848 0.953125 5.63263 1.35313 6.43702 1.9933C5.63263 2.63346 4.48848 3.03347 3.219 3.03347C1.94951 3.03347 0.805361 2.63346 0.000976562 1.9933Z" fill="#DFF6FF"/>
<path fill-rule="evenodd" clip-rule="evenodd" d="M12.8408 1.9933C13.6452 1.35313 14.7894 0.953125 16.0588 0.953125C17.3283 0.953125 18.4725 1.35313 19.2769 1.9933C18.4725 2.63346 17.3283 3.03347 16.0588 3.03347C14.7894 3.03347 13.6452 2.63346 12.8408 1.9933Z" fill="#DFF6FF"/>
<path fill-rule="evenodd" clip-rule="evenodd" d="M6.42871 1.9933C7.2331 1.35313 8.37725 0.953125 9.64673 0.953125C10.9162 0.953125 12.0604 1.35313 12.8648 1.9933C12.0604 2.63346 10.9162 3.03347 9.64673 3.03347C8.37725 3.03347 7.2331 2.63346 6.42871 1.9933Z" fill="#59A30E"/>
<path fill-rule="evenodd" clip-rule="evenodd" d="M19.2666 1.9933C20.071 1.35313 21.2151 0.953125 22.4846 0.953125C23.7541 0.953125 24.8983 1.35313 25.7026 1.9933C24.8983 2.63346 23.7541 3.03347 22.4846 3.03347C21.2151 3.03347 20.071 2.63346 19.2666 1.9933Z" fill="#59A30E"/>
<path fill-rule="evenodd" clip-rule="evenodd" d="M51.4131 1.9933C52.2175 1.35313 53.3616 0.953125 54.6311 0.953125C55.9006 0.953125 57.0447 1.35313 57.8491 1.9933C57.0447 2.63346 55.9006 3.03347 54.6311 3.03347C53.3616 3.03347 52.2175 2.63346 51.4131 1.9933Z" fill="#DFF6FF"/>
<path fill-rule="evenodd" clip-rule="evenodd" d="M64.251 1.9933C65.0554 1.35313 66.1995 0.953125 67.469 0.953125C68.7385 0.953125 69.8826 1.35313 70.687 1.9933C69.8826 2.63346 68.7385 3.03347 67.469 3.03347C66.1995 3.03347 65.0554 2.63346 64.251 1.9933Z" fill="#DFF6FF"/>
<path fill-rule="evenodd" clip-rule="evenodd" d="M57.8408 1.9933C58.6452 1.35313 59.7894 0.953125 61.0588 0.953125C62.3283 0.953125 63.4725 1.35313 64.2769 1.9933C63.4725 2.63346 62.3283 3.03347 61.0588 3.03347C59.7894 3.03347 58.6452 2.63346 57.8408 1.9933Z" fill="#59A30E"/>
<path fill-rule="evenodd" clip-rule="evenodd" d="M70.6787 1.9933C71.4831 1.35313 72.6272 0.953125 73.8967 0.953125C75.1662 0.953125 76.3104 1.35313 77.1148 1.9933C76.3104 2.63346 75.1662 3.03347 73.8967 3.03347C72.6272 3.03347 71.4831 2.63346 70.6787 1.9933Z" fill="#59A30E"/>
<path fill-rule="evenodd" clip-rule="evenodd" d="M25.7061 1.9933C26.5104 1.35313 27.6546 0.953125 28.9241 0.953125C30.1936 0.953125 31.3377 1.35313 32.1421 1.9933C31.3377 2.63346 30.1936 3.03347 28.9241 3.03347C27.6546 3.03347 26.5104 2.63346 25.7061 1.9933Z" fill="#DFF6FF"/>
<path fill-rule="evenodd" clip-rule="evenodd" d="M38.5439 1.9933C39.3483 1.35313 40.4925 0.953125 41.762 0.953125C43.0314 0.953125 44.1756 1.35313 44.98 1.9933C44.1756 2.63346 43.0314 3.03347 41.762 3.03347C40.4925 3.03347 39.3483 2.63346 38.5439 1.9933Z" fill="#DFF6FF"/>
<path fill-rule="evenodd" clip-rule="evenodd" d="M32.1338 1.9933C32.9382 1.35313 34.0823 0.953125 35.3518 0.953125C36.6213 0.953125 37.7654 1.35313 38.5698 1.9933C37.7654 2.63346 36.6213 3.03347 35.3518 3.03347C34.0823 3.03347 32.9382 2.63346 32.1338 1.9933Z" fill="#59A30E"/>
<path fill-rule="evenodd" clip-rule="evenodd" d="M44.9717 1.9933C45.7761 1.35313 46.9202 0.953125 48.1897 0.953125C49.4592 0.953125 50.6033 1.35313 51.4077 1.9933C50.6033 2.63346 49.4592 3.03347 48.1897 3.03347C46.9202 3.03347 45.7761 2.63346 44.9717 1.9933Z" fill="#59A30E"/>
<path fill-rule="evenodd" clip-rule="evenodd" d="M77.1201 1.9933C77.9245 1.35313 79.0687 0.953125 80.3381 0.953125C81.6076 0.953125 82.7518 1.35313 83.5562 1.9933C82.7518 2.63346 81.6076 3.03347 80.3381 3.03347C79.0687 3.03347 77.9245 2.63346 77.1201 1.9933Z" fill="#DFF6FF"/>
<path fill-rule="evenodd" clip-rule="evenodd" d="M83.5498 1.9933C84.3542 1.35313 85.4983 0.953125 86.7678 0.953125C88.0373 0.953125 89.1815 1.35313 89.9858 1.9933C89.1815 2.63346 88.0373 3.03347 86.7678 3.03347C85.4983 3.03347 84.3542 2.63346 83.5498 1.9933Z" fill="#59A30E"/>
<path fill-rule="evenodd" clip-rule="evenodd" d="M90.0146 1.9933C90.819 1.35313 91.9632 0.953125 93.2327 0.953125C94.5022 0.953125 95.6463 1.35313 96.4507 1.9933C95.6463 2.63346 94.5022 3.03347 93.2327 3.03347C91.9632 3.03347 90.819 2.63346 90.0146 1.9933Z" fill="#DFF6FF"/>
<path fill-rule="evenodd" clip-rule="evenodd" d="M102.854 1.9933C103.659 1.35313 104.803 0.953125 106.073 0.953125C107.342 0.953125 108.486 1.35313 109.291 1.9933C108.486 2.63346 107.342 3.03347 106.073 3.03347C104.803 3.03347 103.659 2.63346 102.854 1.9933Z" fill="#DFF6FF"/>
<path fill-rule="evenodd" clip-rule="evenodd" d="M96.4443 1.9933C97.2487 1.35313 98.3929 0.953125 99.6624 0.953125C100.932 0.953125 102.076 1.35313 102.88 1.9933C102.076 2.63346 100.932 3.03347 99.6624 3.03347C98.3929 3.03347 97.2487 2.63346 96.4443 1.9933Z" fill="#59A30E"/>
<path fill-rule="evenodd" clip-rule="evenodd" d="M109.28 1.9933C110.085 1.35313 111.229 0.953125 112.498 0.953125C113.768 0.953125 114.912 1.35313 115.716 1.9933C114.912 2.63346 113.768 3.03347 112.498 3.03347C111.229 3.03347 110.085 2.63346 109.28 1.9933Z" fill="#59A30E"/>
<path fill-rule="evenodd" clip-rule="evenodd" d="M141.433 1.9933C142.237 1.35313 143.381 0.953125 144.651 0.953125C145.92 0.953125 147.064 1.35313 147.869 1.9933C147.064 2.63346 145.92 3.03347 144.651 3.03347C143.381 3.03347 142.237 2.63346 141.433 1.9933Z" fill="#DFF6FF"/>
<path fill-rule="evenodd" clip-rule="evenodd" d="M154.269 1.9933C155.073 1.35313 156.217 0.953125 157.487 0.953125C158.756 0.953125 159.9 1.35313 160.705 1.9933C159.9 2.63346 158.756 3.03347 157.487 3.03347C156.217 3.03347 155.073 2.63346 154.269 1.9933Z" fill="#DFF6FF"/>
<path fill-rule="evenodd" clip-rule="evenodd" d="M147.856 1.9933C148.661 1.35313 149.805 0.953125 151.074 0.953125C152.344 0.953125 153.488 1.35313 154.292 1.9933C153.488 2.63346 152.344 3.03347 151.074 3.03347C149.805 3.03347 148.661 2.63346 147.856 1.9933Z" fill="#59A30E"/>
<path fill-rule="evenodd" clip-rule="evenodd" d="M160.698 1.9933C161.503 1.35313 162.647 0.953125 163.916 0.953125C165.186 0.953125 166.33 1.35313 167.134 1.9933C166.33 2.63346 165.186 3.03347 163.916 3.03347C162.647 3.03347 161.503 2.63346 160.698 1.9933Z" fill="#59A30E"/>
<path fill-rule="evenodd" clip-rule="evenodd" d="M115.722 1.9933C116.526 1.35313 117.67 0.953125 118.94 0.953125C120.209 0.953125 121.353 1.35313 122.158 1.9933C121.353 2.63346 120.209 3.03347 118.94 3.03347C117.67 3.03347 116.526 2.63346 115.722 1.9933Z" fill="#DFF6FF"/>
<path fill-rule="evenodd" clip-rule="evenodd" d="M128.56 1.9933C129.364 1.35313 130.508 0.953125 131.778 0.953125C133.047 0.953125 134.191 1.35313 134.996 1.9933C134.191 2.63346 133.047 3.03347 131.778 3.03347C130.508 3.03347 129.364 2.63346 128.56 1.9933Z" fill="#DFF6FF"/>
<path fill-rule="evenodd" clip-rule="evenodd" d="M122.149 1.9933C122.954 1.35313 124.098 0.953125 125.367 0.953125C126.637 0.953125 127.781 1.35313 128.585 1.9933C127.781 2.63346 126.637 3.03347 125.367 3.03347C124.098 3.03347 122.954 2.63346 122.149 1.9933Z" fill="#59A30E"/>
<path fill-rule="evenodd" clip-rule="evenodd" d="M134.987 1.9933C135.792 1.35313 136.936 0.953125 138.205 0.953125C139.475 0.953125 140.619 1.35313 141.423 1.9933C140.619 2.63346 139.475 3.03347 138.205 3.03347C136.936 3.03347 135.792 2.63346 134.987 1.9933Z" fill="#59A30E"/>
<path fill-rule="evenodd" clip-rule="evenodd" d="M167.138 1.9933C167.942 1.35313 169.086 0.953125 170.356 0.953125C171.625 0.953125 172.769 1.35313 173.574 1.9933C172.769 2.63346 171.625 3.03347 170.356 3.03347C169.086 3.03347 167.942 2.63346 167.138 1.9933Z" fill="#DFF6FF"/>
<path fill-rule="evenodd" clip-rule="evenodd" d="M173.562 1.9933C174.366 1.35313 175.51 0.953125 176.78 0.953125C178.049 0.953125 179.193 1.35313 179.998 1.9933C179.193 2.63346 178.049 3.03347 176.78 3.03347C175.51 3.03347 174.366 2.63346 173.562 1.9933Z" fill="#59A30E"/>
<path fill-rule="evenodd" clip-rule="evenodd" d="M179.999 1.9933C180.803 1.35313 181.948 0.953125 183.217 0.953125C184.487 0.953125 185.631 1.35313 186.435 1.9933C185.631 2.63346 184.487 3.03347 183.217 3.03347C181.948 3.03347 180.803 2.63346 179.999 1.9933Z" fill="#DFF6FF"/>
<path fill-rule="evenodd" clip-rule="evenodd" d="M192.839 1.9933C193.643 1.35313 194.787 0.953125 196.057 0.953125C197.326 0.953125 198.471 1.35313 199.275 1.9933C198.471 2.63346 197.326 3.03347 196.057 3.03347C194.787 3.03347 193.643 2.63346 192.839 1.9933Z" fill="#DFF6FF"/>
<path fill-rule="evenodd" clip-rule="evenodd" d="M186.427 1.9933C187.231 1.35313 188.375 0.953125 189.645 0.953125C190.914 0.953125 192.058 1.35313 192.863 1.9933C192.058 2.63346 190.914 3.03347 189.645 3.03347C188.375 3.03347 187.231 2.63346 186.427 1.9933Z" fill="#59A30E"/>
<path fill-rule="evenodd" clip-rule="evenodd" d="M199.265 1.9933C200.069 1.35313 201.213 0.953125 202.483 0.953125C203.752 0.953125 204.896 1.35313 205.701 1.9933C204.896 2.63346 203.752 3.03347 202.483 3.03347C201.213 3.03347 200.069 2.63346 199.265 1.9933Z" fill="#59A30E"/>
<path fill-rule="evenodd" clip-rule="evenodd" d="M231.413 1.9933C232.217 1.35313 233.362 0.953125 234.631 0.953125C235.901 0.953125 237.045 1.35313 237.849 1.9933C237.045 2.63346 235.901 3.03347 234.631 3.03347C233.362 3.03347 232.217 2.63346 231.413 1.9933Z" fill="#DFF6FF"/>
<path fill-rule="evenodd" clip-rule="evenodd" d="M244.251 1.9933C245.055 1.35313 246.2 0.953125 247.469 0.953125C248.738 0.953125 249.883 1.35313 250.687 1.9933C249.883 2.63346 248.738 3.03347 247.469 3.03347C246.2 3.03347 245.055 2.63346 244.251 1.9933Z" fill="#DFF6FF"/>
<path fill-rule="evenodd" clip-rule="evenodd" d="M237.841 1.9933C238.645 1.35313 239.789 0.953125 241.059 0.953125C242.328 0.953125 243.472 1.35313 244.277 1.9933C243.472 2.63346 242.328 3.03347 241.059 3.03347C239.789 3.03347 238.645 2.63346 237.841 1.9933Z" fill="#59A30E"/>
<path fill-rule="evenodd" clip-rule="evenodd" d="M250.679 1.9933C251.483 1.35313 252.627 0.953125 253.897 0.953125C255.166 0.953125 256.31 1.35313 257.115 1.9933C256.31 2.63346 255.166 3.03347 253.897 3.03347C252.627 3.03347 251.483 2.63346 250.679 1.9933Z" fill="#59A30E"/>
<path fill-rule="evenodd" clip-rule="evenodd" d="M205.704 1.9933C206.508 1.35313 207.653 0.953125 208.922 0.953125C210.192 0.953125 211.336 1.35313 212.14 1.9933C211.336 2.63346 210.192 3.03347 208.922 3.03347C207.653 3.03347 206.508 2.63346 205.704 1.9933Z" fill="#DFF6FF"/>
<path fill-rule="evenodd" clip-rule="evenodd" d="M218.542 1.9933C219.346 1.35313 220.491 0.953125 221.76 0.953125C223.029 0.953125 224.174 1.35313 224.978 1.9933C224.174 2.63346 223.029 3.03347 221.76 3.03347C220.491 3.03347 219.346 2.63346 218.542 1.9933Z" fill="#DFF6FF"/>
<path fill-rule="evenodd" clip-rule="evenodd" d="M212.132 1.9933C212.936 1.35313 214.08 0.953125 215.35 0.953125C216.619 0.953125 217.763 1.35313 218.568 1.9933C217.763 2.63346 216.619 3.03347 215.35 3.03347C214.08 3.03347 212.936 2.63346 212.132 1.9933Z" fill="#59A30E"/>
<path fill-rule="evenodd" clip-rule="evenodd" d="M224.97 1.9933C225.774 1.35313 226.918 0.953125 228.188 0.953125C229.457 0.953125 230.601 1.35313 231.406 1.9933C230.601 2.63346 229.457 3.03347 228.188 3.03347C226.918 3.03347 225.774 2.63346 224.97 1.9933Z" fill="#59A30E"/>
<path fill-rule="evenodd" clip-rule="evenodd" d="M257.118 1.9933C257.923 1.35313 259.067 0.953125 260.336 0.953125C261.606 0.953125 262.75 1.35313 263.554 1.9933C262.75 2.63346 261.606 3.03347 260.336 3.03347C259.067 3.03347 257.923 2.63346 257.118 1.9933Z" fill="#DFF6FF"/>
<path fill-rule="evenodd" clip-rule="evenodd" d="M263.548 1.9933C264.352 1.35313 265.496 0.953125 266.766 0.953125C268.035 0.953125 269.18 1.35313 269.984 1.9933C269.18 2.63346 268.035 3.03347 266.766 3.03347C265.496 3.03347 264.352 2.63346 263.548 1.9933Z" fill="#59A30E"/>
<path fill-rule="evenodd" clip-rule="evenodd" d="M270.013 1.9933C270.817 1.35313 271.961 0.953125 273.231 0.953125C274.5 0.953125 275.644 1.35313 276.449 1.9933C275.644 2.63346 274.5 3.03347 273.231 3.03347C271.961 3.03347 270.817 2.63346 270.013 1.9933Z" fill="#DFF6FF"/>
<path fill-rule="evenodd" clip-rule="evenodd" d="M282.853 1.9933C283.657 1.35313 284.801 0.953125 286.071 0.953125C287.34 0.953125 288.484 1.35313 289.289 1.9933C288.484 2.63346 287.34 3.03347 286.071 3.03347C284.801 3.03347 283.657 2.63346 282.853 1.9933Z" fill="#DFF6FF"/>
<path fill-rule="evenodd" clip-rule="evenodd" d="M276.442 1.9933C277.247 1.35313 278.391 0.953125 279.66 0.953125C280.93 0.953125 282.074 1.35313 282.878 1.9933C282.074 2.63346 280.93 3.03347 279.66 3.03347C278.391 3.03347 277.247 2.63346 276.442 1.9933Z" fill="#59A30E"/>
<path fill-rule="evenodd" clip-rule="evenodd" d="M289.278 1.9933C290.083 1.35313 291.227 0.953125 292.496 0.953125C293.766 0.953125 294.91 1.35313 295.714 1.9933C294.91 2.63346 293.766 3.03347 292.496 3.03347C291.227 3.03347 290.083 2.63346 289.278 1.9933Z" fill="#59A30E"/>
<path fill-rule="evenodd" clip-rule="evenodd" d="M321.431 1.9933C322.235 1.35313 323.379 0.953125 324.649 0.953125C325.918 0.953125 327.062 1.35313 327.867 1.9933C327.062 2.63346 325.918 3.03347 324.649 3.03347C323.379 3.03347 322.235 2.63346 321.431 1.9933Z" fill="#DFF6FF"/>
<path fill-rule="evenodd" clip-rule="evenodd" d="M334.267 1.9933C335.071 1.35313 336.215 0.953125 337.485 0.953125C338.754 0.953125 339.898 1.35313 340.703 1.9933C339.898 2.63346 338.754 3.03347 337.485 3.03347C336.215 3.03347 335.071 2.63346 334.267 1.9933Z" fill="#DFF6FF"/>
<path fill-rule="evenodd" clip-rule="evenodd" d="M327.854 1.9933C328.659 1.35313 329.803 0.953125 331.073 0.953125C332.342 0.953125 333.486 1.35313 334.291 1.9933C333.486 2.63346 332.342 3.03347 331.073 3.03347C329.803 3.03347 328.659 2.63346 327.854 1.9933Z" fill="#59A30E"/>
<path fill-rule="evenodd" clip-rule="evenodd" d="M340.696 1.9933C341.501 1.35313 342.645 0.953125 343.914 0.953125C345.184 0.953125 346.328 1.35313 347.132 1.9933C346.328 2.63346 345.184 3.03347 343.914 3.03347C342.645 3.03347 341.501 2.63346 340.696 1.9933Z" fill="#59A30E"/>
<path fill-rule="evenodd" clip-rule="evenodd" d="M295.72 1.9933C296.524 1.35313 297.668 0.953125 298.938 0.953125C300.207 0.953125 301.351 1.35313 302.156 1.9933C301.351 2.63346 300.207 3.03347 298.938 3.03347C297.668 3.03347 296.524 2.63346 295.72 1.9933Z" fill="#DFF6FF"/>
<path fill-rule="evenodd" clip-rule="evenodd" d="M308.558 1.9933C309.362 1.35313 310.506 0.953125 311.776 0.953125C313.045 0.953125 314.189 1.35313 314.994 1.9933C314.189 2.63346 313.045 3.03347 311.776 3.03347C310.506 3.03347 309.362 2.63346 308.558 1.9933Z" fill="#DFF6FF"/>
<path fill-rule="evenodd" clip-rule="evenodd" d="M302.147 1.9933C302.952 1.35313 304.096 0.953125 305.365 0.953125C306.635 0.953125 307.779 1.35313 308.584 1.9933C307.779 2.63346 306.635 3.03347 305.365 3.03347C304.096 3.03347 302.952 2.63346 302.147 1.9933Z" fill="#59A30E"/>
<path fill-rule="evenodd" clip-rule="evenodd" d="M314.985 1.9933C315.79 1.35313 316.934 0.953125 318.203 0.953125C319.473 0.953125 320.617 1.35313 321.421 1.9933C320.617 2.63346 319.473 3.03347 318.203 3.03347C316.934 3.03347 315.79 2.63346 314.985 1.9933Z" fill="#59A30E"/>
<path fill-rule="evenodd" clip-rule="evenodd" d="M347.136 1.9933C347.94 1.35313 349.084 0.953125 350.354 0.953125C351.623 0.953125 352.767 1.35313 353.572 1.9933C352.767 2.63346 351.623 3.03347 350.354 3.03347C349.084 3.03347 347.94 2.63346 347.136 1.9933Z" fill="#DFF6FF"/>
<path fill-rule="evenodd" clip-rule="evenodd" d="M353.56 1.9933C354.364 1.35313 355.508 0.953125 356.778 0.953125C358.047 0.953125 359.191 1.35313 359.996 1.9933C359.191 2.63346 358.047 3.03347 356.778 3.03347C355.508 3.03347 354.364 2.63346 353.56 1.9933Z" fill="#59A30E"/>
</svg>
